<svg width="120" height="120" viewBox="0 0 120 120" fill="none" xmlns="http://www.w3.org/2000/svg">
<path d="M60.6399 45.9612V104.159H106.163L73.5332 46.9193C73.2047 46.3444 72.5751 45.9612 71.8907 45.9612H60.6399Z" fill="#242E3A"/>
<path d="M47.6918 47.0288L15.1165 104.186H60.6399V45.9612H49.5259C48.7594 45.9612 48.0477 46.3718 47.6918 47.0288Z" fill="#3D4B58"/>
<path d="M80.1304 18.2584H73.7795V17.7657C73.7795 14.0154 70.7136 10.9495 66.9634 10.9495C66.06 10.9495 65.2114 11.1137 64.4449 11.4422C63.2404 9.55341 61.1053 8.29419 58.6963 8.29419C56.8075 8.29419 55.1103 9.06067 53.8784 10.2925C52.6466 11.5244 51.8801 13.2489 51.8801 15.1104V16.7528H46.5695C43.1751 16.7528 40.3282 19.2713 39.8354 22.5562C36.7148 23.1858 34.3606 25.9506 34.3606 29.2355C34.3606 31.097 35.1271 32.8215 36.3589 34.0534C37.5908 35.2852 39.3153 36.0517 41.1768 36.0517H53.8511V47.7405H66.3337V31.9456H73.8069V31.8908H80.1577C83.908 31.8908 86.9739 28.8249 86.9739 25.0746C86.9466 21.3243 83.8806 18.2584 80.1304 18.2584Z" fill="url(#paint0_linear_3305_1187)"/>
<path d="M40.1913 60.1136H44.5712C45.7756 60.1136 46.7611 61.0991 46.7611 62.3036V72.1583C46.7611 73.746 48.0477 75.06 49.6628 75.06C51.2505 75.06 52.5645 73.7734 52.5645 72.1583V56.5824C52.5645 55.1315 53.7416 53.9544 55.1924 53.9544C56.6432 53.9544 57.8203 55.1315 57.8203 56.5824V103.611H53.3857C53.3857 105.226 59.1343 108.895 60.7494 108.895C62.3644 108.895 67.5108 105.226 67.5108 103.611H63.6784V58.9092C63.6784 57.4583 64.8555 56.2812 66.3063 56.2812C67.7572 56.2812 68.9343 57.4583 68.9343 58.9092V68.5997C68.9343 70.1874 70.2209 71.5013 71.8359 71.5013C73.4236 71.5013 74.7376 70.2148 74.7376 68.5997V58.0332C74.7376 57.2941 75.3398 56.6919 76.079 56.6919H79.227L73.5058 46.6729C73.232 46.1801 72.7119 45.879 72.1371 45.879H49.2795C48.7047 45.879 48.1846 46.1801 47.9108 46.6729L40.1913 60.1136Z" fill="url(#paint1_linear_3305_1187)"/>
<path d="M11.2045 103.447H111.103C112.686 103.447 113.927 105.117 113.562 106.978C113.294 108.265 112.199 109.141 111.03 109.141H95.8169C94.7959 109.141 93.8257 109.564 93.0933 110.276C92.4347 110.915 91.8703 111.417 91.2569 111.947C90.2518 112.817 88.7757 112.857 87.8223 111.931C87.0835 111.214 86.3192 110.418 85.5722 109.684C84.3736 108.506 82.598 108.62 81.6167 109.984C80.436 111.626 79.0402 113.785 77.7421 115.439C76.9009 116.51 75.3952 116.565 74.4655 115.569C73.0056 114.006 71.3783 111.934 69.9766 110.32C69.3089 109.552 68.3311 109.141 67.313 109.141H32.7868C31.8956 109.141 31.0336 109.458 30.3552 110.036L29.0112 111.181C27.9601 112.076 26.4161 112.075 25.3586 111.187C24.8853 110.79 24.4236 110.405 23.9894 110.048C23.3318 109.507 22.5048 109.219 21.6533 109.219C18.6025 109.218 15.5398 109.209 11.1315 109.141C9.5489 109.141 8.28286 107.471 8.67242 105.61C8.94024 104.323 10.0359 103.447 11.2045 103.447Z" fill="url(#paint2_linear_3305_1187)"/>
<defs>
<linearGradient id="paint0_linear_3305_1187" x1="60.6467" y1="8.36698" x2="60.6467" y2="43.6478" gradientUnits="userSpaceOnUse">
<stop offset="3.49514e-07" stop-color="#242E3A" stop-opacity="0.4"/>
<stop offset="1" stop-color="#3D4B58" stop-opacity="0"/>
</linearGradient>
<linearGradient id="paint1_linear_3305_1187" x1="61.7744" y1="102.535" x2="58.5282" y2="34.0225" gradientUnits="userSpaceOnUse">
<stop stop-color="#EC574E"/>
<stop offset="0.1816" stop-color="#F06D4E"/>
<stop offset="0.4808" stop-color="#F58B4E"/>
<stop offset="0.812" stop-color="#FFC235"/>
<stop offset="0.8669" stop-color="#FFC636"/>
<stop offset="0.9185" stop-color="#FFD13B"/>
<stop offset="0.9685" stop-color="#FFE442"/>
<stop offset="1" stop-color="#FFF448"/>
</linearGradient>
<linearGradient id="paint2_linear_3305_1187" x1="61.0973" y1="104.347" x2="61.1386" y2="119.297" gradientUnits="userSpaceOnUse">
<stop stop-color="#EC574E"/>
<stop offset="0.1124" stop-color="#F06D4E"/>
<stop offset="0.3315" stop-color="#F58B4E"/>
<stop offset="0.7191" stop-color="#FFC235"/>
<stop offset="0.8012" stop-color="#FFC636"/>
<stop offset="0.8782" stop-color="#FFD13B"/>
<stop offset="0.9529" stop-color="#FFE442"/>
<stop offset="1" stop-color="#FFF448"/>
</linearGradient>
</defs>
</svg>
