<svg width="256" height="256" viewBox="0 0 256 256" fill="none" xmlns="http://www.w3.org/2000/svg">
<g clip-path="url(#clip0_3301_1134)">
<path d="M232 256H24C10.8 256 0 245.2 0 232V24C0 10.8 10.8 0 24 0H232C245.2 0 256 10.8 256 24V232C256 245.2 245.2 256 232 256Z" fill="#D8DFE5"/>
<path d="M129.365 98.0504V222.205H226.482L156.871 100.094C156.17 98.8679 154.827 98.0504 153.367 98.0504H129.365Z" fill="#242E3A"/>
<path d="M101.743 100.328L32.2485 222.264H129.365V98.0504H105.655C104.02 98.0504 102.502 98.9263 101.743 100.328Z" fill="#3D4B58"/>
<path d="M170.945 38.9512H157.397V37.9C157.397 29.8994 150.856 23.3588 142.855 23.3588C140.928 23.3588 139.118 23.7092 137.483 24.41C134.913 20.3805 130.358 17.6942 125.219 17.6942C121.19 17.6942 117.569 19.3293 114.941 21.9572C112.313 24.5852 110.678 28.2643 110.678 32.2354V35.7393H99.3486C92.1072 35.7393 86.0337 41.1119 84.9825 48.1197C78.3251 49.4629 73.3029 55.3611 73.3029 62.369C73.3029 66.34 74.938 70.0192 77.5659 72.6471C80.1939 75.275 83.873 76.9102 87.8441 76.9102H114.883V101.846H141.512V68.1504H157.455V68.0336H171.003C179.004 68.0336 185.545 61.493 185.545 53.4924C185.486 45.4918 178.946 38.9512 170.945 38.9512Z" fill="url(#paint0_linear_3301_1134)"/>
<path d="M85.7415 128.242H95.0852C97.6547 128.242 99.7571 130.345 99.7571 132.914V153.938C99.7571 157.325 102.502 160.128 105.947 160.128C109.334 160.128 112.138 157.383 112.138 153.938V120.709C112.138 117.614 114.649 115.103 117.744 115.103C120.839 115.103 123.35 117.614 123.35 120.709V221.037H113.89C113.89 224.483 126.153 232.308 129.599 232.308C133.044 232.308 144.023 224.483 144.023 221.037H135.847V125.673C135.847 122.578 138.358 120.067 141.454 120.067C144.549 120.067 147.06 122.578 147.06 125.673V146.346C147.06 149.733 149.805 152.536 153.25 152.536C156.637 152.536 159.44 149.791 159.44 146.346V123.804C159.44 122.227 160.725 120.943 162.302 120.943H169.018L156.812 99.5687C156.228 98.5176 155.119 97.8752 153.892 97.8752H105.13C103.903 97.8752 102.794 98.5176 102.21 99.5687L85.7415 128.242Z" fill="url(#paint1_linear_3301_1134)"/>
<path d="M23.903 220.687H237.02C240.396 220.687 243.045 224.249 242.266 228.221C241.695 230.965 239.358 232.834 236.864 232.834H204.409C202.231 232.834 200.162 233.737 198.599 235.255C197.194 236.619 195.99 237.689 194.681 238.821C192.537 240.676 189.388 240.762 187.354 238.786C185.778 237.256 184.148 235.559 182.554 233.993C179.997 231.479 176.209 231.722 174.116 234.633C171.597 238.135 168.619 242.741 165.85 246.269C164.055 248.555 160.843 248.672 158.86 246.548C155.745 243.212 152.274 238.793 149.283 235.35C147.859 233.711 145.773 232.834 143.601 232.834H69.9452C68.044 232.834 66.205 233.511 64.7577 234.744L61.8905 237.186C59.6483 239.096 56.3544 239.092 54.0983 237.199C53.0886 236.352 52.1036 235.531 51.1773 234.769C49.7745 233.615 48.0102 233 46.1936 233C39.6853 232.997 33.1515 232.979 23.7472 232.834C20.371 232.834 17.6701 229.272 18.5012 225.301C19.0725 222.556 21.4098 220.687 23.903 220.687Z" fill="url(#paint2_linear_3301_1134)"/>
</g>
<defs>
<linearGradient id="paint0_linear_3301_1134" x1="129.38" y1="17.8494" x2="129.38" y2="93.1153" gradientUnits="userSpaceOnUse">
<stop offset="3.49514e-07" stop-color="#242E3A" stop-opacity="0.4"/>
<stop offset="1" stop-color="#3D4B58" stop-opacity="0"/>
</linearGradient>
<linearGradient id="paint1_linear_3301_1134" x1="131.785" y1="218.741" x2="124.86" y2="72.5812" gradientUnits="userSpaceOnUse">
<stop stop-color="#EC574E"/>
<stop offset="0.1816" stop-color="#F06D4E"/>
<stop offset="0.4808" stop-color="#F58B4E"/>
<stop offset="0.812" stop-color="#FFC235"/>
<stop offset="0.8669" stop-color="#FFC636"/>
<stop offset="0.9185" stop-color="#FFD13B"/>
<stop offset="0.9685" stop-color="#FFE442"/>
<stop offset="1" stop-color="#FFF448"/>
</linearGradient>
<linearGradient id="paint2_linear_3301_1134" x1="130.341" y1="222.607" x2="130.429" y2="254.5" gradientUnits="userSpaceOnUse">
<stop stop-color="#EC574E"/>
<stop offset="0.1124" stop-color="#F06D4E"/>
<stop offset="0.3315" stop-color="#F58B4E"/>
<stop offset="0.7191" stop-color="#FFC235"/>
<stop offset="0.8012" stop-color="#FFC636"/>
<stop offset="0.8782" stop-color="#FFD13B"/>
<stop offset="0.9529" stop-color="#FFE442"/>
<stop offset="1" stop-color="#FFF448"/>
</linearGradient>
<clipPath id="clip0_3301_1134">
<rect width="256" height="256" fill="white"/>
</clipPath>
</defs>
</svg>
