<svg width="512" height="512" viewBox="0 0 512 512" fill="none" xmlns="http://www.w3.org/2000/svg">
<path d="M258.73 196.101V444.411H452.964L313.742 200.188C312.34 197.736 309.654 196.101 306.734 196.101H258.73Z" fill="#242E3A"/>
<path d="M203.485 200.656L64.4971 444.528H258.73V196.101H211.311C208.04 196.101 205.004 197.853 203.485 200.656Z" fill="#3D4B58"/>
<path d="M341.89 77.9022H314.793V75.7999C314.793 59.7987 301.712 46.7175 285.711 46.7175C281.857 46.7175 278.236 47.4183 274.965 48.8198C269.826 40.7608 260.716 35.3882 250.438 35.3882C242.379 35.3882 235.138 38.6585 229.882 43.9144C224.626 49.1702 221.356 56.5284 221.356 64.4706V71.4784H198.697C184.214 71.4784 172.067 82.2237 169.965 96.2394C156.65 98.9257 146.606 110.722 146.606 124.738C146.606 132.68 149.876 140.038 155.132 145.294C160.388 150.55 167.746 153.82 175.688 153.82H229.765V203.692H283.024V136.301H314.91V136.067H342.007C358.008 136.067 371.089 122.986 371.089 106.985C370.973 90.9835 357.891 77.9022 341.89 77.9022Z" fill="url(#paint0_linear_3305_1169)"/>
<path d="M171.483 256.485H190.17C195.309 256.485 199.514 260.69 199.514 265.829V307.875C199.514 314.65 205.004 320.256 211.895 320.256C218.669 320.256 224.275 314.767 224.275 307.875V241.418C224.275 235.228 229.297 230.206 235.488 230.206C241.678 230.206 246.7 235.228 246.7 241.418V442.075H227.779C227.779 448.966 252.306 464.617 259.197 464.617C266.088 464.617 288.046 448.966 288.046 442.075H271.695V251.346C271.695 245.156 276.717 240.133 282.907 240.133C289.097 240.133 294.12 245.156 294.12 251.346V292.692C294.12 299.466 299.609 305.072 306.5 305.072C313.274 305.072 318.881 299.583 318.881 292.692V247.608C318.881 244.455 321.45 241.885 324.604 241.885H338.035L313.625 199.138C312.457 197.035 310.238 195.75 307.785 195.75H210.259C207.807 195.75 205.588 197.035 204.42 199.138L171.483 256.485Z" fill="url(#paint1_linear_3305_1169)"/>
<path d="M47.8061 441.374H474.04C480.793 441.374 486.091 448.499 484.532 456.441C483.39 461.931 478.715 465.668 473.729 465.668H408.819C404.462 465.668 400.323 467.475 397.198 470.509C394.388 473.238 391.98 475.378 389.363 477.642C385.074 481.352 378.776 481.523 374.708 477.573C371.556 474.511 368.295 471.118 365.108 467.985C359.994 462.959 352.418 463.444 348.231 469.266C343.193 476.27 337.238 485.482 331.7 492.538C328.11 497.11 321.686 497.345 317.72 493.096C311.491 486.424 304.548 477.585 298.567 470.701C295.718 467.421 291.546 465.668 287.202 465.668H139.89C136.088 465.668 132.41 467.022 129.515 469.488L123.781 474.372C119.297 478.192 112.709 478.185 108.197 474.398C106.177 472.703 104.207 471.063 102.355 469.539C99.549 467.23 96.0204 466.001 92.3873 465.999C79.3706 465.995 66.3031 465.958 47.4944 465.668C40.742 465.668 35.3402 458.543 37.0023 450.601C38.1451 445.112 42.8197 441.374 47.8061 441.374Z" fill="url(#paint2_linear_3305_1169)"/>
<defs>
<linearGradient id="paint0_linear_3305_1169" x1="258.76" y1="35.6987" x2="258.76" y2="186.23" gradientUnits="userSpaceOnUse">
<stop offset="3.49514e-07" stop-color="#242E3A" stop-opacity="0.4"/>
<stop offset="1" stop-color="#3D4B58" stop-opacity="0"/>
</linearGradient>
<linearGradient id="paint1_linear_3305_1169" x1="263.571" y1="437.482" x2="249.721" y2="145.163" gradientUnits="userSpaceOnUse">
<stop stop-color="#EC574E"/>
<stop offset="0.1816" stop-color="#F06D4E"/>
<stop offset="0.4808" stop-color="#F58B4E"/>
<stop offset="0.812" stop-color="#FFC235"/>
<stop offset="0.8669" stop-color="#FFC636"/>
<stop offset="0.9185" stop-color="#FFD13B"/>
<stop offset="0.9685" stop-color="#FFE442"/>
<stop offset="1" stop-color="#FFF448"/>
</linearGradient>
<linearGradient id="paint2_linear_3305_1169" x1="260.682" y1="445.214" x2="260.858" y2="509" gradientUnits="userSpaceOnUse">
<stop stop-color="#EC574E"/>
<stop offset="0.1124" stop-color="#F06D4E"/>
<stop offset="0.3315" stop-color="#F58B4E"/>
<stop offset="0.7191" stop-color="#FFC235"/>
<stop offset="0.8012" stop-color="#FFC636"/>
<stop offset="0.8782" stop-color="#FFD13B"/>
<stop offset="0.9529" stop-color="#FFE442"/>
<stop offset="1" stop-color="#FFF448"/>
</linearGradient>
</defs>
</svg>
